<svg width="408" height="55" viewBox="0 0 408 55" fill="none" xmlns="http://www.w3.org/2000/svg">
<path d="M132.556 24.29C133.131 24.7881 133.751 25.2972 134.415 25.8174C135.09 26.3265 135.815 26.8245 136.59 27.3115L135.378 28.3906C134.825 27.804 134.277 27.234 133.734 26.6807C133.203 26.1162 132.639 25.5462 132.041 24.9707C131.377 25.8008 130.635 26.5423 129.816 27.1953C129.008 27.8372 128.151 28.4349 127.243 28.9883L126.812 28.5068C127.42 28.0973 128.001 27.627 128.555 27.0957C129.119 26.5645 129.634 26.0055 130.099 25.4189C130.563 24.8324 130.967 24.2347 131.311 23.626C131.654 23.0173 131.908 22.4307 132.074 21.8662C132.13 21.6781 132.141 21.5508 132.107 21.4844C132.085 21.418 132.052 21.3682 132.008 21.335C131.908 21.2464 131.764 21.1579 131.576 21.0693C131.399 20.9697 131.194 20.8646 130.962 20.7539L131.344 20.2393C131.798 20.361 132.285 20.5049 132.805 20.6709C133.336 20.8258 133.817 20.9808 134.249 21.1357C134.028 21.7334 133.773 22.2923 133.485 22.8125C133.209 23.3216 132.899 23.8141 132.556 24.29ZM136.407 18.8779C136.673 18.9111 136.966 18.9554 137.287 19.0107C137.608 19.055 137.929 19.1104 138.25 19.1768C138.571 19.2321 138.875 19.2874 139.163 19.3428C139.462 19.3981 139.722 19.4424 139.943 19.4756C139.921 19.5752 139.899 19.6969 139.877 19.8408C139.855 19.9847 139.833 20.1341 139.811 20.2891C139.799 20.4329 139.788 20.5658 139.777 20.6875C139.766 20.8092 139.761 20.8978 139.761 20.9531V27.7598C139.761 28.0143 139.75 28.2855 139.728 28.5732C139.716 28.861 139.694 29.1543 139.661 29.4531C139.639 29.7409 139.606 30.0176 139.562 30.2832C139.528 30.5378 139.495 30.7591 139.462 30.9473L138.333 31.1299C138.311 30.9971 138.289 30.8145 138.267 30.582C138.256 30.3496 138.239 30.1006 138.217 29.835C138.206 29.5583 138.195 29.2871 138.184 29.0215C138.184 28.7448 138.184 28.5068 138.184 28.3076V20.9199C138.184 20.5768 138.018 20.3001 137.686 20.0898C137.365 19.8685 136.839 19.6693 136.108 19.4922L136.407 18.8779ZM140.707 34.3008C140.032 34.2897 139.346 34.2842 138.648 34.2842C137.951 34.2842 137.265 34.2897 136.59 34.3008C135.926 34.3118 135.289 34.3285 134.681 34.3506C134.083 34.3727 133.535 34.4004 133.037 34.4336C132.639 34.4557 132.351 34.3783 132.174 34.2012C131.997 34.0241 131.908 33.8138 131.908 33.5703V31.4619C131.908 31.2184 131.897 31.0247 131.875 30.8809C131.853 30.7259 131.792 30.5986 131.692 30.499C131.604 30.3994 131.46 30.3164 131.261 30.25C131.073 30.1836 130.807 30.1061 130.464 30.0176L130.763 29.4199C130.929 29.4421 131.139 29.4697 131.394 29.5029C131.648 29.5251 131.908 29.5527 132.174 29.5859C132.451 29.6191 132.711 29.6523 132.954 29.6855C133.209 29.7188 133.419 29.7464 133.585 29.7686C133.585 29.9124 133.574 30.1172 133.552 30.3828C133.53 30.6484 133.519 30.8809 133.519 31.0801V33.0391C133.519 33.2493 133.546 33.3766 133.602 33.4209C133.668 33.4762 133.817 33.5094 134.05 33.5205C134.47 33.5316 134.974 33.5205 135.561 33.4873C136.158 33.4652 136.772 33.4264 137.403 33.3711C138.045 33.3268 138.671 33.2715 139.279 33.2051C139.899 33.1387 140.447 33.0723 140.923 33.0059L140.707 34.3008ZM149.091 21.7168C148.903 21.7057 148.687 21.7057 148.443 21.7168C148.211 21.7168 147.967 21.7223 147.713 21.7334C147.458 21.7445 147.209 21.7611 146.966 21.7832C146.722 21.7943 146.501 21.8053 146.302 21.8164C146.18 21.8275 146.02 21.8441 145.82 21.8662C145.632 21.8773 145.422 21.8939 145.189 21.916C144.968 21.9382 144.736 21.9658 144.492 21.999C144.249 22.0322 144.022 22.071 143.812 22.1152L143.048 20.7871C143.17 20.8092 143.336 20.8369 143.546 20.8701C143.767 20.9033 143.994 20.931 144.227 20.9531C144.47 20.9753 144.708 20.9974 144.94 21.0195C145.184 21.0306 145.394 21.0361 145.571 21.0361C145.87 21.0361 146.235 21.0361 146.667 21.0361C147.099 21.0251 147.558 21.014 148.045 21.0029C148.532 20.9808 149.024 20.9531 149.522 20.9199C150.032 20.8867 150.513 20.848 150.967 20.8037C150.945 20.8701 150.917 20.9642 150.884 21.0859C150.862 21.1966 150.834 21.3128 150.801 21.4346C150.779 21.5563 150.757 21.6725 150.734 21.7832C150.712 21.8939 150.696 21.9824 150.685 22.0488L150.369 23.9082C150.469 23.8861 150.563 23.875 150.651 23.875C150.751 23.8639 150.851 23.8529 150.95 23.8418L150.817 24.9043C150.175 24.8711 149.6 24.8545 149.091 24.8545C148.593 24.8434 148.139 24.8434 147.729 24.8545C147.331 24.8656 146.966 24.8822 146.634 24.9043C146.313 24.9264 146.014 24.943 145.737 24.9541C145.737 25.0426 145.732 25.1312 145.721 25.2197C145.71 25.3083 145.704 25.3968 145.704 25.4854V26.9463C145.704 27.1234 145.743 27.2562 145.82 27.3447C145.909 27.4333 146.02 27.472 146.152 27.4609C146.584 27.4277 147.088 27.3724 147.663 27.2949C148.25 27.2174 148.858 27.1178 149.489 26.9961C150.131 26.8633 150.779 26.7139 151.432 26.5479C152.096 26.3818 152.727 26.1992 153.324 26V20.9199C153.324 20.5768 153.164 20.3001 152.843 20.0898C152.533 19.8685 152.013 19.6693 151.282 19.4922L151.531 18.8779C151.808 18.9111 152.107 18.9554 152.428 19.0107C152.76 19.055 153.086 19.1104 153.407 19.1768C153.728 19.2321 154.033 19.2874 154.32 19.3428C154.608 19.3981 154.857 19.4424 155.067 19.4756C155.045 19.5752 155.023 19.6969 155.001 19.8408C154.979 19.9847 154.957 20.1341 154.935 20.2891C154.924 20.4329 154.912 20.5658 154.901 20.6875C154.89 20.8092 154.885 20.8978 154.885 20.9531V24.0078C155.117 23.9967 155.372 23.9801 155.648 23.958C155.925 23.9248 156.207 23.8916 156.495 23.8584C156.783 23.8252 157.065 23.792 157.342 23.7588C157.63 23.7145 157.901 23.6702 158.155 23.626L157.973 24.9375C157.773 24.9264 157.547 24.9209 157.292 24.9209C157.037 24.9209 156.766 24.9209 156.479 24.9209C156.202 24.9209 155.925 24.9209 155.648 24.9209C155.372 24.9209 155.117 24.9209 154.885 24.9209V26.1494C154.885 26.3486 154.874 26.5811 154.852 26.8467C154.84 27.1123 154.824 27.3835 154.802 27.6602C154.78 27.9258 154.752 28.1803 154.719 28.4238C154.697 28.6562 154.669 28.8389 154.636 28.9717L153.457 29.1543C153.435 29.0326 153.418 28.8831 153.407 28.7061C153.396 28.529 153.38 28.3464 153.357 28.1582C153.346 27.959 153.335 27.7653 153.324 27.5771C153.324 27.389 153.324 27.2174 153.324 27.0625V26.6807C152.76 26.8799 152.146 27.0791 151.481 27.2783C150.817 27.4775 150.148 27.6602 149.473 27.8262C148.798 27.9922 148.145 28.1416 147.514 28.2744C146.894 28.3962 146.34 28.4902 145.854 28.5566C145.234 28.6341 144.797 28.5566 144.542 28.3242C144.287 28.0807 144.16 27.6934 144.16 27.1621V25.751C144.16 25.5518 144.144 25.3857 144.11 25.2529C144.088 25.1201 144.033 25.0094 143.944 24.9209C143.867 24.8324 143.751 24.7549 143.596 24.6885C143.441 24.6221 143.23 24.5446 142.965 24.4561L143.214 23.9414C144.287 24.0632 145.295 24.1185 146.235 24.1074C147.187 24.0964 148.095 24.0632 148.958 24.0078L149.091 21.7168ZM152.013 29.2705C152.444 29.3258 152.837 29.4365 153.191 29.6025C153.557 29.7686 153.867 29.9788 154.121 30.2334C154.387 30.4769 154.591 30.7591 154.735 31.0801C154.879 31.39 154.951 31.722 154.951 32.0762C154.951 32.4746 154.857 32.8454 154.669 33.1885C154.492 33.5316 154.237 33.8304 153.905 34.085C153.584 34.3395 153.202 34.5387 152.76 34.6826C152.317 34.8265 151.841 34.8984 151.332 34.8984C150.801 34.8984 150.314 34.8265 149.871 34.6826C149.428 34.5387 149.047 34.3395 148.726 34.085C148.405 33.8304 148.15 33.5316 147.962 33.1885C147.785 32.8454 147.696 32.4746 147.696 32.0762C147.696 31.7109 147.768 31.3678 147.912 31.0469C148.067 30.7259 148.283 30.4437 148.56 30.2002C148.836 29.9456 149.157 29.7354 149.522 29.5693C149.899 29.4033 150.314 29.2982 150.768 29.2539C150.745 29.1211 150.685 29.016 150.585 28.9385C150.485 28.861 150.308 28.7835 150.054 28.7061L150.336 28.208C150.458 28.2301 150.602 28.2578 150.768 28.291C150.934 28.3242 151.1 28.363 151.266 28.4072C151.443 28.4404 151.614 28.4736 151.78 28.5068C151.946 28.54 152.096 28.5732 152.229 28.6064C152.173 28.7282 152.129 28.8389 152.096 28.9385C152.062 29.0381 152.035 29.1488 152.013 29.2705ZM153.308 31.9932C153.308 31.7054 153.252 31.4398 153.142 31.1963C153.042 30.9528 152.898 30.7425 152.71 30.5654C152.533 30.3773 152.323 30.2334 152.079 30.1338C151.847 30.0231 151.592 29.9678 151.315 29.9678C151.028 29.9678 150.762 30.0231 150.519 30.1338C150.275 30.2334 150.059 30.3773 149.871 30.5654C149.694 30.7425 149.55 30.9528 149.439 31.1963C149.34 31.4398 149.29 31.7054 149.29 31.9932C149.29 32.2809 149.34 32.5465 149.439 32.79C149.55 33.0225 149.694 33.2272 149.871 33.4043C150.059 33.5924 150.275 33.7363 150.519 33.8359C150.762 33.9355 151.028 33.9854 151.315 33.9854C151.592 33.9854 151.852 33.9355 152.096 33.8359C152.339 33.7363 152.549 33.5924 152.727 33.4043C152.904 33.2272 153.042 33.0225 153.142 32.79C153.252 32.5465 153.308 32.2809 153.308 31.9932ZM167.685 23.7422C168.47 23.9193 169.306 24.0908 170.191 24.2568C171.088 24.4118 171.962 24.528 172.814 24.6055L171.852 25.8008C171.564 25.7012 171.21 25.585 170.789 25.4521C170.368 25.3193 169.926 25.1865 169.461 25.0537C168.996 24.9098 168.526 24.766 168.05 24.6221C167.574 24.4782 167.131 24.3509 166.722 24.2402C165.715 24.7272 164.669 25.1423 163.584 25.4854C162.51 25.8174 161.431 26.0885 160.347 26.2988L159.948 25.7178C160.756 25.5518 161.542 25.3359 162.306 25.0703C163.08 24.8047 163.816 24.5059 164.514 24.1738C165.211 23.8418 165.864 23.4932 166.473 23.1279C167.081 22.7516 167.629 22.3753 168.116 21.999C167.463 21.999 166.821 22.0156 166.19 22.0488C165.571 22.082 164.979 22.1208 164.414 22.165C164.292 22.1761 164.132 22.1927 163.933 22.2148C163.733 22.237 163.518 22.2646 163.285 22.2979C163.053 22.32 162.815 22.3477 162.571 22.3809C162.339 22.403 162.134 22.4307 161.957 22.4639L161.077 21.1191C161.221 21.1413 161.404 21.1689 161.625 21.2021C161.857 21.2354 162.095 21.263 162.339 21.2852C162.593 21.3073 162.842 21.3294 163.086 21.3516C163.329 21.3626 163.545 21.3682 163.733 21.3682C164.132 21.3682 164.613 21.3626 165.178 21.3516C165.742 21.3405 166.329 21.3184 166.938 21.2852C167.557 21.252 168.166 21.2077 168.764 21.1523C169.372 21.097 169.915 21.0251 170.391 20.9365L170.922 21.501C170.446 21.9215 169.937 22.32 169.395 22.6963C168.852 23.0726 168.282 23.4212 167.685 23.7422ZM168.448 20.2559C168.26 20.2559 168.039 20.2559 167.784 20.2559C167.541 20.2559 167.292 20.2614 167.037 20.2725C166.794 20.2725 166.567 20.278 166.356 20.2891C166.146 20.2891 165.98 20.2891 165.858 20.2891C165.781 20.2891 165.654 20.2946 165.477 20.3057C165.311 20.3057 165.128 20.3167 164.929 20.3389C164.741 20.3499 164.547 20.3665 164.348 20.3887C164.16 20.3997 164.005 20.4163 163.883 20.4385L163.169 19.1602C163.313 19.1934 163.501 19.2321 163.733 19.2764C163.966 19.3096 164.198 19.3372 164.431 19.3594C164.674 19.3815 164.901 19.4036 165.111 19.4258C165.322 19.4368 165.488 19.4424 165.609 19.4424C165.742 19.4424 165.93 19.4424 166.174 19.4424C166.417 19.4313 166.688 19.4202 166.987 19.4092C167.286 19.387 167.59 19.3649 167.9 19.3428C168.21 19.3096 168.498 19.2764 168.764 19.2432L168.448 20.2559ZM174.026 27.9756C173.805 27.9645 173.545 27.9535 173.246 27.9424C172.958 27.9313 172.643 27.9258 172.3 27.9258C171.957 27.9147 171.603 27.9036 171.237 27.8926C170.872 27.8815 170.507 27.876 170.142 27.876C169.832 27.876 169.439 27.8815 168.963 27.8926C168.487 27.8926 167.967 27.8981 167.402 27.9092C166.849 27.9202 166.279 27.9368 165.692 27.959C165.106 27.9701 164.547 27.9867 164.016 28.0088C163.495 28.0309 163.025 28.0531 162.604 28.0752C162.184 28.0863 161.863 28.0973 161.642 28.1084C161.232 28.1305 160.784 28.1637 160.297 28.208C159.81 28.2523 159.373 28.3021 158.985 28.3574L158.421 26.9131C158.919 26.9795 159.45 27.0348 160.015 27.0791C160.59 27.1123 161.127 27.14 161.625 27.1621C161.891 27.1732 162.245 27.1787 162.688 27.1787C163.13 27.1787 163.612 27.1787 164.132 27.1787C164.663 27.1676 165.211 27.1566 165.775 27.1455C166.351 27.1234 166.899 27.1068 167.419 27.0957C167.939 27.0846 168.421 27.0736 168.863 27.0625C169.306 27.0404 169.66 27.0238 169.926 27.0127C170.667 26.9684 171.42 26.9131 172.184 26.8467C172.947 26.7803 173.633 26.7028 174.242 26.6143L174.026 27.9756ZM163.435 29.8848C164.01 29.8848 164.663 29.8737 165.394 29.8516C166.135 29.8294 166.871 29.8018 167.602 29.7686C168.332 29.7243 169.024 29.68 169.677 29.6357C170.341 29.5915 170.883 29.5472 171.304 29.5029C171.271 29.7907 171.243 30.0176 171.221 30.1836C171.21 30.3496 171.204 30.5267 171.204 30.7148V32.375C171.204 32.696 171.182 33.0723 171.138 33.5039C171.104 33.9355 171.033 34.3395 170.922 34.7158L169.776 34.9316C169.754 34.7988 169.732 34.6383 169.71 34.4502C169.699 34.262 169.688 34.0628 169.677 33.8525C169.666 33.6533 169.655 33.4541 169.644 33.2549C169.632 33.0667 169.627 32.9007 169.627 32.7568V30.5488C169.206 30.5267 168.747 30.5212 168.249 30.5322C167.751 30.5433 167.247 30.5654 166.738 30.5986C166.229 30.6208 165.726 30.6484 165.228 30.6816C164.741 30.7148 164.281 30.748 163.85 30.7812C163.495 30.8034 163.152 30.8366 162.82 30.8809C162.488 30.9251 162.14 30.9749 161.774 31.0303L161.127 29.7021C161.293 29.7243 161.47 29.7464 161.658 29.7686C161.857 29.7907 162.062 29.8128 162.272 29.835C162.483 29.846 162.688 29.8571 162.887 29.8682C163.086 29.8792 163.269 29.8848 163.435 29.8848ZM186.743 25.4023C186.068 26.6419 185.255 27.7487 184.303 28.7227C183.351 29.6966 182.239 30.5986 180.966 31.4287L180.484 30.9639C181.193 30.4658 181.846 29.9124 182.443 29.3037C183.041 28.6839 183.572 28.0365 184.037 27.3613C184.502 26.6862 184.895 25.9945 185.216 25.2861C185.548 24.5778 185.808 23.875 185.996 23.1777C185.686 23.1888 185.343 23.1999 184.967 23.2109C184.59 23.2109 184.242 23.222 183.921 23.2441C183.81 23.2552 183.661 23.2718 183.473 23.2939C183.285 23.3161 183.085 23.3438 182.875 23.377C182.665 23.3991 182.449 23.4268 182.228 23.46C182.017 23.4932 181.829 23.5264 181.663 23.5596L180.833 22.2314C180.988 22.2536 181.165 22.2812 181.364 22.3145C181.563 22.3366 181.768 22.3587 181.979 22.3809C182.2 22.3919 182.416 22.403 182.626 22.4141C182.847 22.4251 183.052 22.4307 183.24 22.4307C184.048 22.4417 184.779 22.4196 185.432 22.3643C186.096 22.2979 186.771 22.1816 187.457 22.0156L187.988 22.5137C187.867 22.9121 187.728 23.2995 187.573 23.6758C187.418 24.041 187.252 24.4007 187.075 24.7549C187.297 24.777 187.507 24.7936 187.706 24.8047C187.905 24.8047 188.093 24.7992 188.271 24.7881C188.437 24.7881 188.614 24.7826 188.802 24.7715C189.001 24.7604 189.195 24.7493 189.383 24.7383V21.584C189.383 21.418 189.355 21.2686 189.3 21.1357C189.256 21.0029 189.173 20.8812 189.051 20.7705C188.929 20.6598 188.757 20.5602 188.536 20.4717C188.315 20.3831 188.038 20.2946 187.706 20.2061L187.988 19.6084C188.52 19.6748 189.062 19.7633 189.615 19.874C190.169 19.9736 190.656 20.0788 191.076 20.1895C191.054 20.2891 191.032 20.4108 191.01 20.5547C190.988 20.6986 190.965 20.8424 190.943 20.9863C190.932 21.1302 190.921 21.263 190.91 21.3848C190.899 21.5065 190.894 21.5951 190.894 21.6504V29.5527C190.894 29.8958 190.882 30.2887 190.86 30.7314C190.849 31.1631 190.827 31.6003 190.794 32.043C190.772 32.4857 190.739 32.9118 190.694 33.3213C190.661 33.7308 190.622 34.0739 190.578 34.3506L189.516 34.4834C189.493 34.2731 189.477 34.0186 189.466 33.7197C189.455 33.432 189.438 33.1221 189.416 32.79C189.405 32.458 189.394 32.1204 189.383 31.7773C189.383 31.4232 189.383 31.0856 189.383 30.7646V28.8887C188.863 28.9108 188.326 28.9495 187.772 29.0049C187.23 29.0492 186.749 29.1211 186.328 29.2207L185.681 27.9424C186.002 27.9977 186.361 28.0365 186.76 28.0586C187.158 28.0807 187.49 28.0863 187.756 28.0752C187.977 28.0641 188.232 28.0586 188.52 28.0586C188.818 28.0475 189.106 28.0309 189.383 28.0088V25.6348C188.962 25.6569 188.542 25.6901 188.121 25.7344C187.712 25.7786 187.346 25.8451 187.025 25.9336L186.743 25.4023ZM190.694 18.8779C190.96 18.9111 191.242 18.9554 191.541 19.0107C191.84 19.0661 192.133 19.1214 192.421 19.1768C192.72 19.2321 193.002 19.2874 193.268 19.3428C193.533 19.3981 193.771 19.4479 193.981 19.4922C193.959 19.5918 193.937 19.7135 193.915 19.8574C193.904 20.0013 193.887 20.1452 193.865 20.2891C193.854 20.4329 193.843 20.5658 193.832 20.6875C193.821 20.8092 193.815 20.8978 193.815 20.9531V30.1504C193.815 30.4935 193.804 30.8864 193.782 31.3291C193.771 31.7607 193.755 32.1979 193.732 32.6406C193.71 33.0833 193.683 33.5039 193.649 33.9023C193.616 34.3118 193.577 34.6549 193.533 34.9316L192.404 35.0811C192.382 34.8708 192.36 34.6162 192.338 34.3174C192.327 34.0296 192.316 33.7142 192.305 33.3711C192.294 33.0391 192.283 32.7015 192.271 32.3584C192.26 32.0042 192.255 31.6667 192.255 31.3457V20.9199C192.255 20.7539 192.227 20.6045 192.172 20.4717C192.117 20.3278 192.017 20.2005 191.873 20.0898C191.74 19.9681 191.552 19.863 191.309 19.7744C191.076 19.6748 190.783 19.5807 190.429 19.4922L190.694 18.8779ZM202.88 24.0576C203.444 24.4118 204.048 24.7604 204.689 25.1035C205.331 25.4355 206.007 25.7454 206.715 26.0332L205.553 27.1289C205.021 26.6973 204.474 26.2712 203.909 25.8506C203.345 25.43 202.786 25.026 202.232 24.6387C201.447 25.3249 200.605 25.9225 199.709 26.4316C198.824 26.9297 197.927 27.3613 197.02 27.7266L196.604 27.2451C197.313 26.902 197.993 26.5146 198.646 26.083C199.299 25.6514 199.903 25.1921 200.456 24.7051C201.009 24.2181 201.507 23.709 201.95 23.1777C202.404 22.6465 202.791 22.1152 203.112 21.584C202.946 21.584 202.753 21.5895 202.531 21.6006C202.321 21.6117 202.105 21.6283 201.884 21.6504C201.662 21.6615 201.441 21.6725 201.22 21.6836C201.009 21.6947 200.827 21.7002 200.672 21.7002C200.55 21.7002 200.384 21.7113 200.174 21.7334C199.975 21.7445 199.759 21.7666 199.526 21.7998C199.305 21.8219 199.078 21.8496 198.846 21.8828C198.624 21.9049 198.425 21.9271 198.248 21.9492L197.368 20.6377C197.512 20.6598 197.695 20.6875 197.916 20.7207C198.137 20.7428 198.37 20.765 198.613 20.7871C198.857 20.8092 199.095 20.8314 199.327 20.8535C199.571 20.8646 199.781 20.8701 199.958 20.8701C200.368 20.8701 200.783 20.8646 201.203 20.8535C201.635 20.8424 202.055 20.8203 202.465 20.7871C202.885 20.7539 203.284 20.7096 203.66 20.6543C204.048 20.599 204.402 20.5326 204.723 20.4551L205.237 20.9697C204.629 22.1318 203.843 23.1611 202.88 24.0576ZM202.996 29.5029C203.771 29.4033 204.512 29.2982 205.221 29.1875C205.94 29.0658 206.626 28.9329 207.279 28.7891V20.9199C207.279 20.5768 207.119 20.3001 206.798 20.0898C206.477 19.8685 205.951 19.6693 205.221 19.4922L205.503 18.8779C205.78 18.9111 206.078 18.9554 206.399 19.0107C206.731 19.055 207.058 19.1104 207.379 19.1768C207.7 19.2321 208.004 19.2874 208.292 19.3428C208.58 19.3981 208.829 19.4424 209.039 19.4756C209.017 19.5752 208.995 19.6969 208.973 19.8408C208.951 19.9847 208.928 20.1341 208.906 20.2891C208.895 20.4329 208.884 20.5658 208.873 20.6875C208.862 20.8092 208.856 20.8978 208.856 20.9531V26.0996C209.321 26.0664 209.841 26.0221 210.417 25.9668C211.004 25.9004 211.529 25.8285 211.994 25.751L211.812 27.0957C211.634 27.0846 211.424 27.0791 211.181 27.0791C210.937 27.0791 210.683 27.0791 210.417 27.0791C210.151 27.0791 209.88 27.0791 209.604 27.0791C209.338 27.0791 209.089 27.0791 208.856 27.0791V30.1504C208.856 30.4935 208.845 30.8919 208.823 31.3457C208.812 31.7884 208.79 32.2367 208.757 32.6904C208.735 33.1331 208.701 33.5537 208.657 33.9521C208.624 34.3617 208.585 34.6882 208.541 34.9316L207.445 35.0811C207.423 34.904 207.401 34.666 207.379 34.3672C207.368 34.0684 207.351 33.7474 207.329 33.4043C207.318 33.0723 207.307 32.7292 207.296 32.375C207.285 32.0098 207.279 31.6667 207.279 31.3457V29.5029C206.604 29.6579 205.912 29.8018 205.204 29.9346C204.507 30.0674 203.815 30.1891 203.129 30.2998C202.454 30.4105 201.801 30.5101 201.17 30.5986C200.539 30.6761 199.958 30.737 199.427 30.7812C199.305 30.7923 199.133 30.8089 198.912 30.8311C198.702 30.8421 198.469 30.8643 198.215 30.8975C197.971 30.9196 197.722 30.9473 197.468 30.9805C197.224 31.0026 197.008 31.0303 196.82 31.0635L196.007 29.6523C196.184 29.6855 196.394 29.7132 196.638 29.7354C196.881 29.7575 197.125 29.7796 197.368 29.8018C197.623 29.8239 197.861 29.8405 198.082 29.8516C198.314 29.8516 198.508 29.8516 198.663 29.8516C199.637 29.8073 200.583 29.7409 201.502 29.6523V28.1582C201.502 27.9811 201.485 27.8372 201.452 27.7266C201.43 27.6048 201.375 27.5052 201.286 27.4277C201.198 27.3392 201.065 27.2673 200.888 27.2119C200.722 27.1455 200.495 27.0791 200.207 27.0127L200.456 26.4316C200.832 26.4538 201.27 26.4925 201.768 26.5479C202.277 26.6032 202.753 26.6751 203.195 26.7637C203.173 26.8633 203.151 26.9795 203.129 27.1123C203.107 27.2451 203.085 27.3779 203.062 27.5107C203.04 27.6436 203.024 27.7653 203.013 27.876C203.002 27.9867 202.996 28.0752 202.996 28.1416V29.5029ZM219.83 27.8594C219.21 27.8372 218.535 27.8372 217.805 27.8594C217.085 27.8815 216.388 27.9147 215.713 27.959C215.691 28.0475 215.669 28.1361 215.646 28.2246C215.635 28.3021 215.619 28.3851 215.597 28.4736L214.501 28.6396C214.479 28.4183 214.451 28.1471 214.418 27.8262C214.396 27.4941 214.385 27.1732 214.385 26.8633V22.7627C214.385 22.5856 214.368 22.4362 214.335 22.3145C214.302 22.1927 214.235 22.0876 214.136 21.999C214.036 21.8994 213.892 21.8164 213.704 21.75C213.527 21.6836 213.295 21.6172 213.007 21.5508L213.272 20.9863C213.461 20.9974 213.671 21.0195 213.903 21.0527C214.136 21.0749 214.374 21.1025 214.617 21.1357C214.872 21.1689 215.121 21.2077 215.364 21.252C215.619 21.2962 215.857 21.3405 216.078 21.3848C216.056 21.4844 216.034 21.6006 216.012 21.7334C215.99 21.8662 215.967 21.999 215.945 22.1318C215.934 22.2536 215.923 22.3698 215.912 22.4805C215.901 22.5911 215.896 22.6797 215.896 22.7461V23.5264C216.504 23.5042 217.13 23.4766 217.771 23.4434C218.413 23.3991 219.077 23.3493 219.764 23.2939V22.1318C219.764 21.9548 219.742 21.8053 219.697 21.6836C219.653 21.5618 219.576 21.4567 219.465 21.3682C219.354 21.2686 219.199 21.1855 219 21.1191C218.812 21.0417 218.568 20.9697 218.27 20.9033L218.535 20.2891C219 20.3444 219.504 20.4108 220.046 20.4883C220.588 20.5658 221.07 20.6488 221.49 20.7373C221.468 20.8369 221.446 20.9531 221.424 21.0859C221.402 21.2077 221.38 21.335 221.357 21.4678C221.335 21.6006 221.319 21.7279 221.308 21.8496C221.297 21.9603 221.291 22.0488 221.291 22.1152V23.7588C221.557 23.792 221.878 23.8141 222.254 23.8252C222.641 23.8363 222.968 23.8363 223.233 23.8252C223.355 23.8252 223.477 23.8252 223.599 23.8252C223.731 23.8141 223.859 23.8086 223.98 23.8086V20.9199C223.98 20.5768 223.814 20.3001 223.482 20.0898C223.161 19.8685 222.636 19.6693 221.905 19.4922L222.204 18.8779C222.47 18.9111 222.763 18.9554 223.084 19.0107C223.405 19.055 223.726 19.1104 224.047 19.1768C224.368 19.2321 224.672 19.2874 224.96 19.3428C225.259 19.3981 225.519 19.4424 225.74 19.4756C225.718 19.5752 225.696 19.6969 225.674 19.8408C225.652 19.9847 225.63 20.1341 225.607 20.2891C225.585 20.4329 225.569 20.5658 225.558 20.6875C225.547 20.8092 225.541 20.8978 225.541 20.9531V27.9258C225.541 28.1803 225.53 28.4515 225.508 28.7393C225.497 29.027 225.48 29.3203 225.458 29.6191C225.436 29.9069 225.403 30.1836 225.358 30.4492C225.325 30.7038 225.292 30.9251 225.259 31.1133L224.113 31.3125C224.091 31.1797 224.075 30.9971 224.063 30.7646C224.052 30.5212 224.036 30.2666 224.014 30.001C224.003 29.7243 223.992 29.4531 223.98 29.1875C223.98 28.9219 223.98 28.6895 223.98 28.4902V24.6553C223.56 24.6774 223.15 24.7161 222.752 24.7715C222.354 24.8158 221.983 24.8822 221.64 24.9707L221.291 24.2402V25.9336C221.291 26.4316 221.258 26.8854 221.191 27.2949C221.136 27.6934 221.086 28.0199 221.042 28.2744L219.913 28.457C219.902 28.3685 219.891 28.2744 219.88 28.1748C219.869 28.0752 219.852 27.9701 219.83 27.8594ZM219.764 26.6475V24.29C219.155 24.2679 218.519 24.2679 217.854 24.29C217.201 24.3011 216.549 24.3288 215.896 24.373V26.1328C215.896 26.4759 215.879 26.7969 215.846 27.0957C216.465 27.0846 217.113 27.0625 217.788 27.0293C218.474 26.9961 219.133 26.9518 219.764 26.8965V26.6475ZM226.388 34.3838C225.713 34.3506 225.026 34.3285 224.329 34.3174C223.643 34.3063 222.968 34.3008 222.304 34.3008C221.651 34.3118 221.025 34.3285 220.428 34.3506C219.83 34.3727 219.282 34.4004 218.784 34.4336C218.386 34.4557 218.104 34.3783 217.938 34.2012C217.771 34.0241 217.688 33.8138 217.688 33.5703V31.6279C217.688 31.3844 217.677 31.1908 217.655 31.0469C217.633 30.8919 217.572 30.7646 217.473 30.665C217.373 30.5654 217.224 30.4824 217.024 30.416C216.825 30.3496 216.554 30.2721 216.211 30.1836L216.51 29.5693C216.676 29.5915 216.886 29.6191 217.141 29.6523C217.395 29.6855 217.655 29.7188 217.921 29.752C218.198 29.7852 218.463 29.8239 218.718 29.8682C218.983 29.9014 219.199 29.929 219.365 29.9512C219.343 30.084 219.321 30.2832 219.299 30.5488C219.277 30.8145 219.266 31.0469 219.266 31.2461V33.0391C219.266 33.2493 219.299 33.3766 219.365 33.4209C219.432 33.4762 219.576 33.5094 219.797 33.5205C220.217 33.5316 220.715 33.526 221.291 33.5039C221.878 33.4928 222.481 33.4652 223.101 33.4209C223.731 33.3766 224.351 33.3268 224.96 33.2715C225.58 33.2161 226.128 33.1497 226.604 33.0723L226.388 34.3838ZM236.913 31.5947C237.422 31.5726 237.887 31.556 238.308 31.5449C238.739 31.5228 239.099 31.5062 239.387 31.4951C240.128 31.4619 240.881 31.4121 241.645 31.3457C242.419 31.2682 243.105 31.1852 243.703 31.0967L243.504 32.458C243.061 32.4359 242.486 32.4193 241.777 32.4082C241.069 32.3971 240.344 32.3861 239.603 32.375C239.293 32.375 238.916 32.3805 238.474 32.3916C238.031 32.3916 237.549 32.4027 237.029 32.4248C236.52 32.4359 235.994 32.4525 235.452 32.4746C234.921 32.4857 234.412 32.5023 233.925 32.5244C233.438 32.5355 232.995 32.5521 232.597 32.5742C232.209 32.5964 231.905 32.613 231.684 32.624C231.263 32.6572 230.815 32.696 230.339 32.7402C229.863 32.7734 229.42 32.8122 229.011 32.8564L228.479 31.4121C228.978 31.4674 229.503 31.5173 230.057 31.5615C230.621 31.5947 231.158 31.6224 231.667 31.6445C231.866 31.6556 232.099 31.6611 232.364 31.6611C232.641 31.6611 232.934 31.6611 233.244 31.6611C233.565 31.6611 233.903 31.6611 234.257 31.6611C234.611 31.6501 234.971 31.639 235.336 31.6279V29.4863C234.893 29.4199 234.478 29.2926 234.091 29.1045C233.715 28.9053 233.388 28.6729 233.111 28.4072C232.835 28.1305 232.619 27.8262 232.464 27.4941C232.309 27.1621 232.231 26.8135 232.231 26.4482C232.231 25.9945 232.331 25.5794 232.53 25.2031C232.729 24.8158 233.001 24.4893 233.344 24.2236C233.687 23.9469 234.091 23.7367 234.556 23.5928C235.021 23.4378 235.524 23.3604 236.066 23.3604C236.642 23.3604 237.168 23.4489 237.644 23.626C238.119 23.792 238.523 24.0189 238.855 24.3066C239.199 24.5944 239.459 24.9264 239.636 25.3027C239.824 25.668 239.918 26.0498 239.918 26.4482C239.918 26.8135 239.84 27.1621 239.686 27.4941C239.542 27.8151 239.337 28.1139 239.071 28.3906C238.806 28.6562 238.485 28.8831 238.108 29.0713C237.743 29.2594 237.345 29.3923 236.913 29.4697V31.5947ZM233.908 26.4648C233.908 26.7637 233.964 27.0459 234.074 27.3115C234.196 27.5771 234.351 27.8151 234.539 28.0254C234.738 28.2246 234.965 28.3851 235.22 28.5068C235.474 28.6175 235.745 28.6729 236.033 28.6729C236.332 28.6729 236.609 28.6175 236.863 28.5068C237.129 28.3962 237.361 28.2467 237.561 28.0586C237.76 27.8594 237.915 27.627 238.025 27.3613C238.136 27.0846 238.191 26.7858 238.191 26.4648C238.191 26.1549 238.136 25.8617 238.025 25.585C237.926 25.2972 237.782 25.0537 237.594 24.8545C237.406 24.6442 237.179 24.4782 236.913 24.3564C236.647 24.2347 236.354 24.1738 236.033 24.1738C235.745 24.1738 235.474 24.2292 235.22 24.3398C234.965 24.4395 234.738 24.5889 234.539 24.7881C234.351 24.9873 234.196 25.2308 234.074 25.5186C233.964 25.7952 233.908 26.1107 233.908 26.4648ZM238.49 21.0361C238.302 21.0361 238.07 21.0361 237.793 21.0361C237.527 21.0361 237.251 21.0417 236.963 21.0527C236.686 21.0638 236.426 21.0749 236.183 21.0859C235.939 21.0859 235.745 21.0859 235.602 21.0859C235.524 21.0859 235.402 21.0915 235.236 21.1025C235.081 21.1025 234.91 21.1136 234.722 21.1357C234.534 21.1468 234.345 21.1634 234.157 21.1855C233.969 21.1966 233.809 21.2132 233.676 21.2354L233.012 19.9736C233.145 20.0068 233.316 20.04 233.526 20.0732C233.737 20.0954 233.958 20.123 234.19 20.1562C234.423 20.1784 234.644 20.2005 234.854 20.2227C235.076 20.2337 235.253 20.2393 235.386 20.2393C235.507 20.2393 235.701 20.2337 235.967 20.2227C236.243 20.2005 236.542 20.1784 236.863 20.1562C237.184 20.1341 237.511 20.1064 237.843 20.0732C238.186 20.04 238.485 20.0068 238.739 19.9736L238.49 21.0361ZM241.645 22.8291C241.346 22.807 240.953 22.7959 240.466 22.7959C239.979 22.7959 239.448 22.8014 238.872 22.8125C238.297 22.8125 237.704 22.8236 237.096 22.8457C236.487 22.8568 235.906 22.8734 235.353 22.8955C234.81 22.9176 234.329 22.9398 233.908 22.9619C233.488 22.973 233.178 22.984 232.979 22.9951C232.835 23.0062 232.652 23.0228 232.431 23.0449C232.209 23.056 231.977 23.0726 231.733 23.0947C231.501 23.1169 231.274 23.139 231.053 23.1611C230.831 23.1833 230.654 23.2054 230.521 23.2275L229.907 21.8496C230.073 21.8828 230.278 21.916 230.521 21.9492C230.765 21.9824 231.014 22.0156 231.269 22.0488C231.523 22.071 231.772 22.0931 232.016 22.1152C232.259 22.1263 232.464 22.1318 232.63 22.1318C232.884 22.1318 233.233 22.1263 233.676 22.1152C234.118 22.1042 234.611 22.0876 235.153 22.0654C235.696 22.0433 236.271 22.0156 236.88 21.9824C237.5 21.9382 238.114 21.8994 238.723 21.8662C239.331 21.8219 239.912 21.7777 240.466 21.7334C241.03 21.6781 241.534 21.6227 241.977 21.5674L241.645 22.8291Z" fill="#4E3F4A"/>
<path d="M383.5 29.7559L379 25.2559L374.5 29.7559" stroke="#3F2222" stroke-width="1.5" stroke-linecap="round" stroke-linejoin="round"/>
</svg>
