<svg width="48" height="49" viewBox="0 0 48 49" fill="none" xmlns="http://www.w3.org/2000/svg">
<rect x="0.5" y="0.838867" width="47" height="47" rx="3.5" stroke="#BEC0DD"/>
<g clip-path="url(#clip0_47_583)">
<path d="M21.4343 33.1113C20.5345 33.6926 19.4621 33.9461 18.3977 33.8288C17.3332 33.7115 16.3415 33.2308 15.5894 32.4673L14.9318 31.8233C14.6436 31.5281 14.4821 31.1314 14.4821 30.7185C14.4821 30.3054 14.6436 29.9089 14.9318 29.6136L17.7228 26.8475C18.0152 26.5597 18.4087 26.3985 18.8187 26.3985C19.2287 26.3985 19.6222 26.5597 19.9146 26.8475C20.2095 27.1363 20.6055 27.2979 21.0179 27.2979C21.4302 27.2979 21.8262 27.1363 22.1211 26.8475L26.5048 22.4571C26.651 22.3128 26.7672 22.1408 26.8464 21.9511C26.9257 21.7614 26.9665 21.5578 26.9665 21.3522C26.9665 21.1466 26.9257 20.943 26.8464 20.7533C26.7672 20.5636 26.651 20.3916 26.5048 20.2472C26.2174 19.9544 26.0564 19.5602 26.0564 19.1496C26.0564 18.739 26.2174 18.3449 26.5048 18.052L29.2811 15.2714C29.576 14.9827 29.9719 14.821 30.3843 14.821C30.7968 14.821 31.1927 14.9827 31.4876 15.2714L32.1306 15.93C32.8928 16.6833 33.3728 17.6765 33.4899 18.7426C33.607 19.8087 33.354 20.8827 32.7734 21.7839C29.7486 26.2486 25.8999 30.0933 21.4343 33.1113Z" stroke="#8F9DCA" stroke-width="1.46429" stroke-linecap="round" stroke-linejoin="round"/>
</g>
<defs>
<clipPath id="clip0_47_583">
<rect width="20.5" height="20.5" fill="white" transform="translate(13.75 14.0889)"/>
</clipPath>
</defs>
</svg>
