<svg xmlns="http://www.w3.org/2000/svg" viewBox="0 0 48 48"><defs><style>.cls-1{fill:#fc6}.cls-2{fill:#ffba55}.cls-3{fill:#ffde76}.cls-5{fill:#9fdbf3}.cls-6{fill:#b2e5fb}</style></defs><g id="Couple_Rings" data-name="Couple Rings"><path class="cls-1" d="M31 32a14.92 14.92 0 0 1-3.76 9.92A10.7 10.7 0 0 1 24 39.55a11 11 0 0 0 0-15.1 11.15 11.15 0 0 1 3.23-2.37A15 15 0 0 1 31 32zM24 44.68a15 15 0 1 1 0-25.36 14.53 14.53 0 0 0-3.24 2.76 11 11 0 1 0 0 19.84A15.51 15.51 0 0 0 24 44.68z"/><path class="cls-2" d="M19.36 43.36A11 11 0 0 1 7.51 25 11 11 0 0 0 16 43c3.59 0 2.15-1 3.36.36z"/><path class="cls-3" d="M20 17.54a14.14 14.14 0 0 1 2 .72 15.32 15.32 0 0 0-1.7 1.41 15 15 0 0 0-13.8 1.15c-1.59 1-2 1.59-1.74 1.26.1 0 5.75-7.16 15.24-4.54zM25.82 43.32a15 15 0 0 0 .86-18.58 8.14 8.14 0 0 1 1.82-1 15 15 0 0 1-2.68 19.58z"/><path class="cls-1" d="M36 17.54A15 15 0 1 0 47 32a15 15 0 0 0-11-14.46zM32 43a11 11 0 1 1 11-11 11 11 0 0 1-11 11z"/><path class="cls-2" d="M22.5 41.05a11 11 0 0 0 16.5-.56A11 11 0 0 1 23.51 25a11 11 0 0 0-1.01 16.05z"/><path class="cls-3" d="M36 17.54a15 15 0 0 0-15.23 4.54l-.07.09a15 15 0 0 1 21.12 21.15A15 15 0 0 0 36 17.54z"/><path d="M31 32a14.92 14.92 0 0 1-3.76 9.92A10.7 10.7 0 0 1 24 39.55a11 11 0 0 0 0-15.1 11.15 11.15 0 0 1 3.23-2.37A15 15 0 0 1 31 32z" style="fill:none"/><path class="cls-5" d="M36 15v2.54a15.08 15.08 0 0 0-8 0V15a2 2 0 0 1 2-2h4a2 2 0 0 1 2 2z"/><path class="cls-6" d="M36 15c0 2 .57.62-3.68 1.09A2.09 2.09 0 0 1 30.27 13H34a2 2 0 0 1 2 2z"/><path class="cls-5" d="M20 15v2.55a15 15 0 0 0-8 0V15a2 2 0 0 1 2-2h4a2 2 0 0 1 2 2z"/><path class="cls-6" d="M20 15c0 2 .57.62-3.68 1.09A2.09 2.09 0 0 1 14.27 13H18a2 2 0 0 1 2 2z"/><path d="M29 4c0 1.66-.86 2.13-5 6.24C19.75 6 19.83 6.09 19.77 6A3 3 0 0 1 22 1a3.08 3.08 0 0 1 2 .77A3.07 3.07 0 0 1 26 1a3 3 0 0 1 3 3z" style="fill:#db5669"/><path d="M29 4c0 1.6-.87 2.11-3.61 4.86C22 5.45 21 4.88 21 3.23A2.94 2.94 0 0 1 22 1a2.94 2.94 0 0 1 2 .77A3.09 3.09 0 0 1 26 1a3 3 0 0 1 3 3z" style="fill:#f26674"/></g></svg>